<mxfile host="app.diagrams.net" agent="Mozilla/5.0 (Windows NT 10.0; Win64; x64) AppleWebKit/537.36 (KHTML, like Gecko) Chrome/127.0.0.0 Safari/537.36" version="24.7.16">
  <diagram name="Page-1" id="LYyhWZZDS07LQsUjUFzu">
    <mxGraphModel dx="880" dy="426" grid="1" gridSize="10" guides="1" tooltips="1" connect="1" arrows="1" fold="1" page="1" pageScale="1" pageWidth="1100" pageHeight="850" math="0" shadow="0">
      <root>
        <mxCell id="0" />
        <mxCell id="1" parent="0" />
        <mxCell id="54Czj8qAaHH7oaApMbjQ-1" value="::&lt;u&gt;sender&lt;/u&gt;" style="rounded=0;whiteSpace=wrap;html=1;" vertex="1" parent="1">
          <mxGeometry x="100" y="220" width="120" height="60" as="geometry" />
        </mxCell>
        <mxCell id="54Czj8qAaHH7oaApMbjQ-2" value="::&lt;u&gt;receiver&lt;/u&gt;" style="rounded=0;whiteSpace=wrap;html=1;" vertex="1" parent="1">
          <mxGeometry x="700" y="220" width="120" height="60" as="geometry" />
        </mxCell>
        <mxCell id="54Czj8qAaHH7oaApMbjQ-3" value="::&lt;u&gt;messageForm&lt;/u&gt;" style="rounded=0;whiteSpace=wrap;html=1;" vertex="1" parent="1">
          <mxGeometry x="400" y="220" width="120" height="60" as="geometry" />
        </mxCell>
        <mxCell id="54Czj8qAaHH7oaApMbjQ-4" value="" style="endArrow=none;html=1;rounded=0;entryX=1;entryY=0.25;entryDx=0;entryDy=0;exitX=0;exitY=0.25;exitDx=0;exitDy=0;" edge="1" parent="1" source="54Czj8qAaHH7oaApMbjQ-3" target="54Czj8qAaHH7oaApMbjQ-1">
          <mxGeometry width="50" height="50" relative="1" as="geometry">
            <mxPoint x="430" y="250" as="sourcePoint" />
            <mxPoint x="480" y="200" as="targetPoint" />
          </mxGeometry>
        </mxCell>
        <mxCell id="54Czj8qAaHH7oaApMbjQ-5" value="" style="endArrow=none;html=1;rounded=0;entryX=1;entryY=0.75;entryDx=0;entryDy=0;exitX=0;exitY=0.75;exitDx=0;exitDy=0;" edge="1" parent="1" source="54Czj8qAaHH7oaApMbjQ-3" target="54Czj8qAaHH7oaApMbjQ-1">
          <mxGeometry width="50" height="50" relative="1" as="geometry">
            <mxPoint x="430" y="250" as="sourcePoint" />
            <mxPoint x="480" y="200" as="targetPoint" />
          </mxGeometry>
        </mxCell>
        <mxCell id="54Czj8qAaHH7oaApMbjQ-8" value="" style="endArrow=none;html=1;rounded=0;entryX=1;entryY=0.5;entryDx=0;entryDy=0;exitX=0;exitY=0.5;exitDx=0;exitDy=0;" edge="1" parent="1" source="54Czj8qAaHH7oaApMbjQ-2" target="54Czj8qAaHH7oaApMbjQ-3">
          <mxGeometry width="50" height="50" relative="1" as="geometry">
            <mxPoint x="430" y="250" as="sourcePoint" />
            <mxPoint x="480" y="200" as="targetPoint" />
          </mxGeometry>
        </mxCell>
        <mxCell id="54Czj8qAaHH7oaApMbjQ-9" value="1: initializeForm()" style="text;html=1;align=center;verticalAlign=middle;resizable=0;points=[];autosize=1;strokeColor=none;fillColor=none;" vertex="1" parent="1">
          <mxGeometry x="250" y="190" width="120" height="30" as="geometry" />
        </mxCell>
        <mxCell id="54Czj8qAaHH7oaApMbjQ-10" value="" style="endArrow=classic;html=1;rounded=0;entryX=0.158;entryY=1.167;entryDx=0;entryDy=0;entryPerimeter=0;" edge="1" parent="1" target="54Czj8qAaHH7oaApMbjQ-9">
          <mxGeometry width="50" height="50" relative="1" as="geometry">
            <mxPoint x="342" y="225" as="sourcePoint" />
            <mxPoint x="480" y="200" as="targetPoint" />
          </mxGeometry>
        </mxCell>
        <mxCell id="54Czj8qAaHH7oaApMbjQ-11" value="2: sendMessage()" style="text;html=1;align=center;verticalAlign=middle;resizable=0;points=[];autosize=1;strokeColor=none;fillColor=none;" vertex="1" parent="1">
          <mxGeometry x="565" y="200" width="120" height="30" as="geometry" />
        </mxCell>
        <mxCell id="54Czj8qAaHH7oaApMbjQ-12" value="3: messageSent()" style="text;html=1;align=center;verticalAlign=middle;resizable=0;points=[];autosize=1;strokeColor=none;fillColor=none;" vertex="1" parent="1">
          <mxGeometry x="240" y="290" width="120" height="30" as="geometry" />
        </mxCell>
        <mxCell id="54Czj8qAaHH7oaApMbjQ-13" value="" style="endArrow=classic;html=1;rounded=0;entryX=0.158;entryY=1.167;entryDx=0;entryDy=0;entryPerimeter=0;" edge="1" parent="1">
          <mxGeometry width="50" height="50" relative="1" as="geometry">
            <mxPoint x="336.5" y="279" as="sourcePoint" />
            <mxPoint x="263.5" y="279" as="targetPoint" />
          </mxGeometry>
        </mxCell>
        <mxCell id="54Czj8qAaHH7oaApMbjQ-14" value="" style="endArrow=classic;html=1;rounded=0;entryX=0.817;entryY=0.967;entryDx=0;entryDy=0;entryPerimeter=0;" edge="1" parent="1" target="54Czj8qAaHH7oaApMbjQ-11">
          <mxGeometry width="50" height="50" relative="1" as="geometry">
            <mxPoint x="590" y="230" as="sourcePoint" />
            <mxPoint x="647.04" y="232.01" as="targetPoint" />
          </mxGeometry>
        </mxCell>
      </root>
    </mxGraphModel>
  </diagram>
</mxfile>
